<svg id="logosandtypes_com" data-name="logosandtypes com" xmlns="http://www.w3.org/2000/svg" viewBox="0 0 150 150"><defs><style>.cls-1{fill:none;}.cls-2{fill:#1d6645;}</style></defs><path class="cls-1" d="M0,0H150V150H0Z" transform="translate(0 0)"/><path id="fbpsh" class="cls-2" d="M142.08,20.65H52.55C42.11,20.65,37,25.4,33.4,39.19L29.08,55.37c-.15.47.32.8.8.47,0,0,5.17-3.48,14-3.48h75.84c9.5,0,16.56-8.23,18.49-15.39l4.33-15.85A.5.5,0,0,0,142.08,20.65Z" transform="translate(0 0)"/><path id="fbpsi" class="cls-2" d="M127.12,60.78H41.64c-10.31,0-14.82,4-19.15,18.53l-4.33,16c-.19.47.33.8.8.47,0,0,5.46-3.48,14.3-3.48h69.63c10.91,0,18.44-8.42,21.83-20.8l2.91-10.44c.15-.19-.18-.33-.47-.33Z" transform="translate(0 0)"/><path id="fbpsj" class="cls-2" d="M69.77,100.91h-39c-10.16,0-15.29,4.42-18.82,17.41L8.19,132.15c0,.33.14.47.47.47H46c9.51,0,17.36-5.84,20.89-18.73l3.39-12.51A.55.55,0,0,0,69.77,100.91Z" transform="translate(0 0)"/></svg>